<svg width="140" height="140" viewBox="0 0 140 140" fill="none" xmlns="http://www.w3.org/2000/svg">
<circle opacity="0.1" cx="70" cy="70" r="70" fill="#1265E1"/>
<path d="M103.311 82.2744C105.04 80.4681 107 78.4313 107 75.7283C107 73.0252 105.04 70.9884 103.311 69.1821C102.318 68.3067 101.5 67.2502 100.902 66.0691C100.673 64.7007 100.703 63.3013 100.992 61.9442C101.312 59.5102 101.684 56.7559 100.159 54.655C98.6219 52.5285 95.8677 52.0288 93.4465 51.5933C92.0818 51.4567 90.7557 51.0611 89.5393 50.4275C88.5759 49.4837 87.8057 48.361 87.2719 47.1224C86.0933 44.9318 84.761 42.4466 82.2373 41.6267C79.8033 40.8325 77.3181 42.0239 75.1275 43.0743C73.905 43.7864 72.5566 44.2562 71.1562 44.4578C69.7559 44.2562 68.4075 43.7864 67.185 43.0743C64.9944 42.0239 62.5092 40.8325 60.0752 41.6267C57.5515 42.4466 56.2192 44.9318 55.0407 47.1224C54.5068 48.361 53.7366 49.4837 52.7732 50.4275C51.5607 51.0594 50.2391 51.455 48.8788 51.5933C46.4448 52.0288 43.6906 52.5285 42.1533 54.655C40.6289 56.7559 41.0004 59.5102 41.3206 61.9442C41.6095 63.3013 41.6399 64.7007 41.4103 66.0691C40.8123 67.2502 39.995 68.3067 39.0019 69.1821C37.2725 70.9884 35.3125 73.0252 35.3125 75.7283C35.3125 78.4313 37.2725 80.4681 39.0019 82.2744C39.995 83.1498 40.8123 84.2063 41.4103 85.3874C41.6399 86.7558 41.6095 88.1552 41.3206 89.5123C41.0004 91.9463 40.6289 94.7006 42.1533 96.8015C43.6906 98.9281 46.4448 99.4277 48.866 99.8632C50.2307 99.9998 51.5568 100.395 52.7732 101.029C53.7325 101.976 54.5021 103.098 55.0407 104.334C56.2192 106.525 57.5515 109.01 60.0752 109.83C62.5092 110.624 64.9944 109.433 67.185 108.382C68.4075 107.67 69.7559 107.2 71.1562 106.999C72.5566 107.2 73.905 107.67 75.1275 108.382C76.8019 109.338 78.6638 109.92 80.5848 110.086C81.1457 110.089 81.7035 110.002 82.2373 109.83C84.761 109.01 86.0933 106.525 87.2719 104.334C87.8057 103.095 88.5759 101.973 89.5393 101.029C90.7518 100.397 92.0734 100.001 93.4337 99.8632C95.8677 99.4277 98.6219 98.9281 100.159 96.8015C101.684 94.7006 101.312 91.9463 100.992 89.5123C100.703 88.1552 100.673 86.7558 100.902 85.3874C101.5 84.2063 102.318 83.1498 103.311 82.2744ZM100.531 79.6226C99.1062 80.8849 97.9851 82.4526 97.2512 84.2088C96.7938 86.1181 96.772 88.1059 97.1872 90.0248C97.4306 91.831 97.674 93.6886 97.0462 94.5469C96.4185 95.4052 94.5482 95.751 92.7547 96.0841C90.8145 96.2837 88.9424 96.9092 87.2719 97.916C85.815 99.185 84.6558 100.76 83.8771 102.528C83.006 104.155 82.1092 105.833 81.046 106.179C80.0852 106.499 78.407 105.692 76.7929 104.911C75.0661 103.918 73.1414 103.318 71.1562 103.156C69.1711 103.318 67.2464 103.918 65.5196 104.911C63.9055 105.692 62.2273 106.486 61.2666 106.179C60.2033 105.833 59.3065 104.155 58.4354 102.528C57.6567 100.76 56.4975 99.185 55.0407 97.916C53.3701 96.9092 51.498 96.2837 49.5578 96.0841C47.7643 95.751 45.894 95.418 45.2663 94.5469C44.6385 93.6757 44.8819 91.831 45.1253 90.0248C45.5405 88.1059 45.5187 86.1181 45.0613 84.2088C44.3274 82.4526 43.2063 80.8849 41.7818 79.6226C40.4879 78.2775 39.1556 76.8812 39.1556 75.7283C39.1556 74.5753 40.4879 73.179 41.7818 71.8339C43.2063 70.5716 44.3274 69.0039 45.0613 67.2477C45.5187 65.3384 45.5405 63.3507 45.1253 61.4317C44.8819 59.6255 44.6385 57.7679 45.2663 56.9096C45.894 56.0513 47.7643 55.7055 49.5578 55.3724C51.498 55.1728 53.3701 54.5473 55.0407 53.5405C56.4975 52.2715 57.6567 50.6969 58.4354 48.9287C59.3065 47.3018 60.2033 45.6236 61.2666 45.2777C62.2273 44.9575 63.9055 45.7645 65.5196 46.546C67.2464 47.5388 69.1711 48.138 71.1562 48.301C73.1414 48.138 75.0661 47.5388 76.7929 46.546C78.407 45.7645 80.0852 44.9703 81.046 45.2777C82.1092 45.6236 83.006 47.3018 83.8771 48.9287C84.6558 50.6969 85.815 52.2715 87.2719 53.5405C88.9424 54.5473 90.8145 55.1728 92.7547 55.3724C94.5482 55.7055 96.4185 56.0385 97.0462 56.9096C97.674 57.7808 97.4306 59.6255 97.1872 61.4317C96.772 63.3507 96.7938 65.3384 97.2512 67.2477C97.9851 69.0039 99.1062 70.5716 100.531 71.8339C101.825 73.179 103.157 74.5753 103.157 75.7283C103.157 76.8812 101.825 78.2775 100.531 79.6226ZM71.1562 50.4916C66.1649 50.4916 61.2857 51.9717 57.1355 54.7447C52.9854 57.5178 49.7507 61.4592 47.8406 66.0706C45.9305 70.682 45.4307 75.7563 46.4045 80.6517C47.3783 85.5471 49.7818 90.0439 53.3112 93.5733C56.8406 97.1027 61.3374 99.5062 66.2328 100.48C71.1283 101.454 76.2025 100.954 80.8139 99.0439C85.4253 97.1338 89.3667 93.8991 92.1398 89.749C94.9128 85.5988 96.3929 80.7196 96.3929 75.7283C96.3841 69.0378 93.7224 62.6239 88.9915 57.893C84.2607 53.1621 77.8467 50.5004 71.1562 50.4916ZM82.4551 73.6658L77.7024 78.2007L78.7272 84.6956C78.7654 84.9311 78.7366 85.1726 78.6441 85.3926C78.5517 85.6126 78.3993 85.8021 78.2043 85.9397C78.0093 86.0772 77.7797 86.1572 77.5414 86.1705C77.3032 86.1839 77.066 86.13 76.8569 86.0151L71.0666 82.8893L65.2122 85.8742C64.9994 85.9833 64.7603 86.0307 64.5219 86.011C64.2835 85.9913 64.0555 85.9052 63.8635 85.7626C63.6715 85.6199 63.5233 85.4264 63.4357 85.2038C63.348 84.9813 63.3244 84.7387 63.3675 84.5034L64.5588 78.0341L59.9086 73.3839C59.7427 73.2142 59.6271 73.0017 59.5749 72.7701C59.5227 72.5385 59.5358 72.297 59.6129 72.0724C59.6899 71.8479 59.8279 71.6492 60.0113 71.4985C60.1947 71.3478 60.4164 71.251 60.6516 71.219L67.1722 70.3478L70.1442 64.4935C70.2515 64.278 70.4173 64.0971 70.6226 63.9716C70.828 63.846 71.0645 63.7808 71.3052 63.7835C71.5459 63.7862 71.7809 63.8566 71.9834 63.9867C72.1859 64.1168 72.3476 64.3013 72.4501 64.5191L75.2812 70.4503L81.7761 71.4752C82.0113 71.5135 82.2311 71.6166 82.4109 71.773C82.5906 71.9293 82.7232 72.1327 82.7937 72.3603C82.8643 72.5879 82.8699 72.8306 82.8101 73.0612C82.7503 73.2918 82.6274 73.5012 82.4551 73.6658Z" fill="#1265E1"/>
</svg>
