<svg width="140" height="140" viewBox="0 0 140 140" fill="none" xmlns="http://www.w3.org/2000/svg">
<circle opacity="0.1" cx="70" cy="70" r="70" fill="#AA21EA"/>
<path fill-rule="evenodd" clip-rule="evenodd" d="M68.081 34.1621C89.0513 34.1621 106 51.1107 106 72.081C106 93.0513 89.0513 110 68.081 110C47.1107 110 30.1621 93.0513 30.1621 72.081C30.1621 51.1107 47.1107 34.1621 68.081 34.1621ZM60.8994 64.6122C63.1975 62.0268 66.932 61.165 70.6664 62.0268C76.1244 63.4631 79.2843 69.2084 77.848 74.3791L82.7315 77.2518L79.8589 82.1353L75.2626 79.2626C72.6773 81.848 68.9428 82.9971 65.2084 81.848C59.7504 80.4117 56.5904 74.9537 58.0268 69.4957L41.0782 59.7287L43.9508 54.8452L60.8994 64.6122ZM63.4848 70.6447C62.9103 73.2301 64.3466 75.8155 66.6447 76.39C69.2301 77.2518 71.8155 75.8155 72.39 73.2301C73.2518 70.6447 71.8155 68.0593 69.2301 67.4848C66.6447 66.9103 64.0593 68.3466 63.4848 70.6447ZM68.081 42.78C84.1678 42.78 97.382 55.707 97.382 72.081C97.382 88.1678 84.1678 101.382 68.081 101.382V96.2113C81.2952 96.2113 92.2113 85.2952 92.2113 72.081C92.2113 58.5796 81.2952 47.9508 68.081 47.9508V42.78Z" fill="#AA21EA"/>
</svg>
